<svg xmlns="http://www.w3.org/2000/svg" viewBox="0 0 305.46 231.26"><defs><style>.cls-1{fill:none;}.cls-1,.cls-3{stroke:#fff;stroke-width:19.71px;}.cls-1,.cls-2,.cls-3{stroke-linecap:round;stroke-linejoin:round;}.cls-2{fill:#caba9f;stroke:#caba9f;stroke-width:12.41px;}.cls-3,.cls-4{fill:#fff;}</style></defs><g id="Warstwa_2" data-name="Warstwa 2"><g id="Warstwa_1-2" data-name="Warstwa 1"><path class="cls-1" d="M206.12,69.75V40.52A30.66,30.66,0,0,0,175.45,9.85H40.52A30.64,30.64,0,0,0,9.85,40.52v66.09a30.66,30.66,0,0,0,30.09,30.66l3.65,38.49c.37,3.86,3.4,6,5.46,3.86l19.38-20.11,20.45-22.24c.22-.21.22-.12.16,0h33.27"/><path class="cls-2" d="M225.26,183h.12C225.5,183.46,225.29,183.18,225.26,183Z"/><path class="cls-3" d="M295.61,97v58.76A27.23,27.23,0,0,1,268.9,183l-3.26,34.22c-.33,3.44-3,5.34-4.84,3.44l-17.24-17.88L225.38,183c-.18-.19-.18-.09-.12,0H148.44a27.26,27.26,0,0,1-27.27-27.23V138.19l1.14-.92h53.14a30.67,30.67,0,0,0,30.67-30.66V69.75h62.25A27.24,27.24,0,0,1,295.61,97Z"/><path class="cls-4" d="M42,93.15V93a7.2,7.2,0,0,1,3.73-6.3l7.53-4.13a7.19,7.19,0,0,0,0-12.6l-7.49-4.12A7.17,7.17,0,0,1,42,59.6h0a7.19,7.19,0,0,1,10.64-6.31L78.46,67.42a7.2,7.2,0,0,1,3.74,6.31V79a7.19,7.19,0,0,1-3.75,6.3L52.59,99.45A7.18,7.18,0,0,1,42,93.15Z"/></g></g></svg>