<svg xmlns="http://www.w3.org/2000/svg" viewBox="0 0 313.06 237.02"><defs><style>.cls-1{fill:none;}.cls-1,.cls-2,.cls-3{stroke:#8c00ff;stroke-linecap:round;stroke-linejoin:round;}.cls-1,.cls-3{stroke-width:20.2px;}.cls-2{fill:#caba9f;stroke-width:12.72px;}.cls-3,.cls-4{fill:#8c00ff;}</style></defs><g id="Warstwa_2" data-name="Warstwa 2"><g id="Warstwa_1-2" data-name="Warstwa 1"><path class="cls-1" d="M211.25,71.48V41.53A31.42,31.42,0,0,0,179.82,10.1H41.53A31.4,31.4,0,0,0,10.1,41.53v67.73a31.41,31.41,0,0,0,30.83,31.43l3.74,39.44c.38,4,3.49,6.17,5.6,4l19.86-20.62,21-22.79c.22-.22.22-.13.16,0h34.1"/><path class="cls-2" d="M230.86,187.55H231C231.11,188,230.89,187.74,230.86,187.55Z"/><path class="cls-3" d="M303,99.42v60.22a27.89,27.89,0,0,1-27.37,27.91l-3.33,35.08c-.35,3.52-3.12,5.47-5,3.52l-17.66-18.33L231,187.55c-.19-.19-.19-.09-.13,0H152.13a27.93,27.93,0,0,1-27.94-27.91v-18l1.16-.94h54.47a31.44,31.44,0,0,0,31.43-31.43V71.48h63.8A27.92,27.92,0,0,1,303,99.42Z"/><path class="cls-4" d="M43,95.46v-.1a7.39,7.39,0,0,1,3.82-6.46l7.72-4.23a7.37,7.37,0,0,0,0-12.91l-7.69-4.23a7.36,7.36,0,0,1-3.81-6.45h0A7.36,7.36,0,0,1,54,54.62L80.41,69.1a7.37,7.37,0,0,1,3.83,6.46V81a7.37,7.37,0,0,1-3.83,6.47L53.9,101.93A7.37,7.37,0,0,1,43,95.46Z"/></g></g></svg>