<svg xmlns="http://www.w3.org/2000/svg" viewBox="0 0 520.71 99.46"><defs><style>.cls-1{fill:#1d1d1b;}.cls-2{fill:none;stroke:#1d1d1b;stroke-linecap:round;stroke-linejoin:round;stroke-width:8.03px;}</style></defs><g id="Warstwa_2" data-name="Warstwa 2"><g id="Warstwa_1-2" data-name="Warstwa 1"><path class="cls-1" d="M3,85.52a31.8,31.8,0,0,0,16,4.83c8.83,0,13-4.41,13-9.93,0-5.79-3.45-9-12.41-12.28C7.58,63.87,1.93,57.25,1.93,49.25c0-10.76,8.69-19.59,23-19.59a33.4,33.4,0,0,1,16.41,4.13l-3,8.83a26,26,0,0,0-13.65-3.86c-7.17,0-11.17,4.14-11.17,9.1,0,5.52,4,8,12.69,11.32,11.59,4.41,17.52,10.2,17.52,20.14,0,11.72-9.11,20-25,20-7.31,0-14.07-1.8-18.76-4.56Z"/><path class="cls-1" d="M59.31,49.25c0-6.9-.14-12.56-.55-18.07H69.38l.56,10.75h.41c3.72-6.34,9.93-12.27,21-12.27,9.11,0,16,5.52,18.9,13.38h.28a27.45,27.45,0,0,1,7.45-8.69c4-3,8.41-4.69,14.76-4.69,8.83,0,21.93,5.79,21.93,29V97.94H142.77V60.14c0-12.83-4.69-20.55-14.49-20.55-6.89,0-12.27,5.1-14.34,11a20.1,20.1,0,0,0-1,6.07V97.94H101.11v-40c0-10.62-4.69-18.34-13.93-18.34-7.59,0-13.11,6.07-15,12.14a16.7,16.7,0,0,0-1,5.93V97.94H59.31Z"/><path class="cls-1" d="M240.84,0H253V97.94H240.84Z"/><path class="cls-1" d="M273.39,0h12.14V97.94H273.39Z"/><path class="cls-1" d="M324,15.17H295.74V5h68.83v10.2H336.15V97.94H324Z"/><path class="cls-1" d="M402.64,97.94l-1-8.42h-.41a24.89,24.89,0,0,1-20.42,9.94c-13.51,0-20.41-9.52-20.41-19.18,0-16.14,14.35-25,40.14-24.83V54.07c0-5.52-1.52-15.45-15.17-15.45a33.27,33.27,0,0,0-17.39,5l-2.75-8c5.52-3.59,13.52-5.93,21.93-5.93,20.42,0,25.38,13.93,25.38,27.31v25a94.81,94.81,0,0,0,1.1,16Zm-1.8-34.07c-13.24-.28-28.27,2.06-28.27,15,0,7.86,5.24,11.59,11.45,11.59a16.63,16.63,0,0,0,16.14-11.17,12.87,12.87,0,0,0,.68-3.87Z"/><path class="cls-1" d="M432.16,0H444.3V97.94H432.16Z"/><path class="cls-1" d="M476.71,61.8H477c1.65-2.35,4-5.24,5.93-7.59l19.59-23h14.62l-25.8,27.44,29.38,39.32H506l-23-32-6.21,6.9V97.94h-12V0h12Z"/><path class="cls-2" d="M176,35.58h41.72c5.24,0,9.48,4.52,9.48,10.11V67.46c0,5.52-4.14,10-9.3,10.11h0l-1.13,12.68c-.11,1.28-1.05,2-1.69,1.28l-6-6.63-6.33-7.33c-.16-.18.06.27,0,0H176c-5.24,0-9.48-4.53-9.48-10.11V45.69C166.49,40.1,170.73,35.58,176,35.58Z"/><path class="cls-1" d="M177.46,63.26v0A2.51,2.51,0,0,1,178.77,61l2.64-1.45a2.52,2.52,0,0,0,0-4.42l-2.63-1.45a2.52,2.52,0,0,1-1.3-2.21h0a2.52,2.52,0,0,1,3.73-2.21l9,5a2.51,2.51,0,0,1,1.31,2.21v1.86a2.54,2.54,0,0,1-1.31,2.22l-9.07,5A2.53,2.53,0,0,1,177.46,63.26Z"/></g></g></svg>